<svg id="Layer_1" data-name="Layer 1" xmlns="http://www.w3.org/2000/svg" viewBox="0 0 255.27 165.34"><defs><style>.cls-1{fill:#231f20;}</style></defs><path class="cls-1" d="M277.46,95.86c-8-2.13-18-2.6-29.29-2.6H183.44c-.28,0-.84,0-1.51,0l-5.79,0h0c-22.52.12-45.65.4-67.66.4-21.5,0-42.52,5.2-43.7,31.18-.53,13.86,6.51,25.12,17.72,30a3.59,3.59,0,0,1,.12,6.5C67.7,168.74,57.26,185,56.51,205.46c-1.65,39.44,24.8,53.14,64.72,53.14H254.32a1.41,1.41,0,0,0,1.41-1.41h0a1.42,1.42,0,0,0-1.14-1.38c-3.63-.73-14.69-4.06-14.69-17.29V200.38a8,8,0,0,1,9.1-7.84,82.53,82.53,0,0,0,11.68.87c31.65,0,51-20.79,51-52.67C311.7,118.77,300.37,102.71,277.46,95.86ZM135.88,222.7c0,13.7-3.55,25.27-16.3,25.27-15.83,0-18.66-18.19-18.66-39.92,0-24.56,7.56-44.4,25.27-44.4h6.07a3.62,3.62,0,0,1,3.62,3.61Zm0-70.11a3.6,3.6,0,0,1-3.88,3.62c-16.78-1-25.18-8.86-25.18-28,0-14.41,8.27-28.58,21-28.58h4.42a3.63,3.63,0,0,1,3.61,3.61Zm59.7,86.47-6,7.06a1.86,1.86,0,0,1-2.76.09l-6.69-6.87a3.65,3.65,0,0,1-1-2.52V115.51a3.65,3.65,0,0,1,1-2.52l6.3-6.47a1.86,1.86,0,0,1,2.66,0L195.4,113a3.61,3.61,0,0,1,1,2.54V236.73A3.62,3.62,0,0,1,195.58,239.06Zm54.24-53.92a21.84,21.84,0,0,1-3.08-.24A7.94,7.94,0,0,1,239.9,177V103.52a3.64,3.64,0,0,1,3.59-3.62l4.68,0c13,0,19.36,17,19.36,47C267.53,166.25,265.17,185.14,249.82,185.14Z" transform="translate(-56.44 -93.26)"/></svg>